inDegrees=yes
name=ik_S56_A08_T02
DataType=double
version=3
OpenSimVersion=4.3-2021-08-27-4bc7ad9
endheader
time	pelvis_tilt	pelvis_list	pelvis_rotation	pelvis_tx	pelvis_ty	pelvis_tz	hip_flexion_r	hip_adduction_r	hip_rotation_r	knee_angle_r	knee_angle_r_beta	ankle_angle_r	subtalar_angle_r	mtp_angle_r	hip_flexion_l	hip_adduction_l	hip_rotation_l	knee_angle_l	knee_angle_l_beta	ankle_angle_l	subtalar_angle_l	mtp_angle_l	lumbar_extension	lumbar_bending	lumbar_rotation	arm_flex_r	arm_add_r	arm_rot_r	elbow_flex_r	pro_sup_r	wrist_flex_r	wrist_dev_r	arm_flex_l	arm_add_l	arm_rot_l	elbow_flex_l	pro_sup_l	wrist_flex_l	wrist_dev_l
17.39999999999972	-4.337094478342459	-2.842642989932087	34.4735880825887	0	0.9399999999999999	0	45.22900434057376	-11.11881077689983	-11.34959564652467	49.8610731889047	0.8702398957242555	0	0	0	45.22900434057376	-11.11881077689983	-11.34959564652467	49.8610731889047	0.8702398957242555	0	0	0	-6.442767896224986	2.353977265947641	-5.220434147618205	31.22699058926075	-10.53778719107294	16.52908569976269	39.62606748884707	117.4271248086472	0	0	47.67487242794306	0.7987579802964829	9.336897966348113	65.99918542598729	115.4947823745635	0	0
17.41999999999972	-4.341265418439229	-2.831202150234826	34.45170324591617	0	0.9399999999999999	0	45.2277771305901	-11.10158380644996	-11.33492585065435	49.88007956189605	0.8705716195118168	0	0	0	45.2277771305901	-11.10158380644996	-11.33492585065435	49.88007956189605	0.8705716195118168	0	0	0	-6.435529153853472	2.359183708549825	-5.216063318880518	31.21037569345419	-10.53812640643715	16.6204150195218	39.68055529540454	117.369646625495	0	0	47.68061824233493	0.8115882171502822	9.362037208740599	65.9760331439243	115.5085936020717	0	0
17.43999999999972	-4.356728462876966	-2.824056236660425	34.41570627579175	0	0.9399999999999999	0	45.22769766715615	-11.10025342735622	-11.33388839623379	49.88129387489391	0.8705928132717793	0	0	0	45.22769766715615	-11.10025342735622	-11.33388839623379	49.88129387489391	0.8705928132717793	0	0	0	-6.443814172830491	2.372906197399162	-5.211222685718472	31.27212067075515	-10.5377941607305	16.71205730493243	39.59532342089114	117.3436014328499	0	0	47.66709214782403	0.8371447134996748	9.413318185339321	65.86763924141074	115.7865111923542	0	0
17.45999999999972	-4.368178199508024	-2.812973506111773	34.39273674483268	0	0.9399999999999999	0	45.22768197961718	-11.09999537763767	-11.33368592987868	49.8815373306769	0.8705970623767754	0	0	0	45.22768197961718	-11.09999537763767	-11.33368592987868	49.8815373306769	0.8705970623767754	0	0	0	-6.446886496568548	2.388141904233576	-5.207963028202851	31.2873137038605	-10.54252792602998	16.75638155741622	39.59921058635757	117.3395275106001	0	0	47.63341416436646	0.8338633582170146	9.498725227858971	65.85399351776714	115.8127332557111	0	0
17.47999999999972	-4.38076162865481	-2.806155127964298	34.35921582360638	0	0.9399999999999999	0	45.22766115307582	-11.09964659302475	-11.33341393744049	49.88185531866384	0.8706026123141293	0	0	0	45.22766115307582	-11.09964659302475	-11.33341393744049	49.88185531866384	0.8706026123141293	0	0	0	-6.453421245846031	2.400959606055908	-5.208503542768065	31.31752492375792	-10.53521602161876	16.70591770553277	39.61576472098843	117.3447317258992	0	0	47.55510470818452	0.8578968936937266	9.539500696327483	65.85042678587281	115.8083148147081	0	0
17.49999999999972	-4.386234604066097	-2.798225923316779	34.31771311868506	0	0.9399999999999999	0	45.22763045365021	-11.09913181553691	-11.33301264802642	49.88232337424033	0.8706107814250214	0	0	0	45.22763045365021	-11.09913181553691	-11.33301264802642	49.88232337424033	0.8706107814250214	0	0	0	-6.453548954981659	2.411134584566999	-5.212521816644609	31.31239491618178	-10.52030609158167	16.64965739062769	39.67114555574462	117.3227454920631	0	0	47.4388368875284	0.8699471539043159	9.51637192238827	65.86736054018532	115.8508588600703	0	0
17.51999999999972	-4.394096908963722	-2.795012474541965	34.30734341359216	0	0.9399999999999999	0	45.22761128325145	-11.09882347541874	-11.33276885672874	49.8826268410229	0.8706160779195476	0	0	0	45.22761128325145	-11.09882347541874	-11.33276885672874	49.8826268410229	0.8706160779195476	0	0	0	-6.458028404149853	2.417928400450732	-5.210542523423596	31.29862860715177	-10.50150453399974	16.58475820992214	39.69936381385457	117.3199806394561	0	0	47.34177477335691	0.8863269983497614	9.425148510365931	65.89009215557279	115.8831427302078	0	0
17.53999999999971	-4.394688011097115	-2.786334933218045	34.32089216214655	0	0.9399999999999999	0	45.22755082493332	-11.09781350327288	-11.33198046331399	49.88355138001256	0.8706322141689802	0	0	0	45.22755082493332	-11.09781350327288	-11.33198046331399	49.88355138001256	0.8706322141689802	0	0	0	-6.454754059194629	2.430145348952637	-5.245508410321813	31.26288073866247	-10.49094648959076	16.55975689357233	39.77043391645048	117.3685063858236	0	0	47.197525167002	0.9211265646250245	9.183457723035724	66.05895661509845	115.9854782827725	0	0
17.55999999999971	-4.402980612129263	-2.789380424680074	34.34890525671614	0	0.9399999999999999	0	45.22748252511109	-11.09666591047661	-11.33108626591222	49.8845895266728	0.87065033324632	0	0	0	45.22748252511109	-11.09666591047661	-11.33108626591222	49.8845895266728	0.87065033324632	0	0	0	-6.464493232327153	2.437417178322751	-5.284181142357843	31.26145281496529	-10.45945614063099	16.54262896334182	39.80893715092268	117.3990118460852	0	0	47.04642268545293	0.8981891503010258	8.907618617254636	66.29453150748823	115.8271023835156	0	0
17.57999999999971	-4.408664136732043	-2.790025789011266	34.37904020482674	0	0.9399999999999999	0	45.22741796226066	-11.09558439439984	-11.33024258343109	49.88557302459478	0.8706674985232451	0	0	0	45.22741796226066	-11.09558439439984	-11.33024258343109	49.88557302459478	0.8706674985232451	0	0	0	-6.471188410279477	2.446647511376248	-5.332380782481297	31.26331032788256	-10.44694367329721	16.57286865717437	39.8019414722908	117.3869478554483	0	0	46.79199213991048	0.8218518149102984	8.67706536617845	66.74752909518457	115.5445675330824	0	0
17.59999999999971	-4.40625509185109	-2.808113080732447	34.42290996590488	0	0.9399999999999999	0	45.22734986790724	-11.09444188733949	-11.3293516994883	49.88660817183041	0.8706855652507498	0	0	0	45.22734986790724	-11.09444188733949	-11.3293516994883	49.88660817183041	0.8706855652507498	0	0	0	-6.481207214149846	2.437647185759416	-5.387728361920394	31.25111986669511	-10.39138958206825	16.58443928454044	39.82526376708167	117.3376045671558	0	0	46.45898341589636	0.6173524631025229	8.465324513276826	67.32527364838252	115.3712048042558	0	0
17.61999999999971	-4.422620086170781	-2.828309158508523	34.56572791768777	0	0.9399999999999999	0	45.22728242104144	-11.09332593247486	-11.32847726855985	49.88764598561527	0.8707036785183182	0	0	0	45.22728242104144	-11.09332593247486	-11.32847726855985	49.88764598561527	0.8707036785183182	0	0	0	-6.511099358380177	2.449261938752918	-5.527730601013005	31.31409595728201	-10.36584659287041	16.57408993143456	39.84067888778961	117.3047577936545	0	0	46.06992707340918	0.3880356488835336	8.18049719926201	68.71839159786278	116.1676359908657	0	0
17.63999999999971	-4.418723223224169	-2.832403483016449	34.66634063566035	0	0.9399999999999999	0	45.22718016124634	-11.09161103536284	-11.32713946725224	49.88919913224635	0.8707307860407968	0	0	0	45.22718016124634	-11.09161103536284	-11.32713946725224	49.88919913224635	0.8707307860407968	0	0	0	-6.51344339506287	2.456532293465854	-5.621227386286538	31.27774788072236	-10.37497006830321	16.58352999336054	39.83822253753863	117.2573348440387	0	0	45.62135028683384	0.1107882050689124	7.892177644315992	69.71487213351409	116.9118782580561	0	0
17.65999999999971	-4.414944412177468	-2.861230033510494	34.89085069457619	0	0.9399999999999999	0	45.22709849307358	-11.09026537772225	-11.32608322554945	49.89045859284985	0.870752767775127	0	0	0	45.22709849307358	-11.09026537772225	-11.32608322554945	49.89045859284985	0.870752767775127	0	0	0	-6.537472673603962	2.465573265917154	-5.856180125548588	31.33615442716587	-10.31310958909542	16.58655009519696	39.84594785041653	117.2177685270655	0	0	45.18294152298012	-0.372031048959466	7.734948047472484	71.89575175118034	119.1747191383042	0	0
17.67999999999971	-4.420864891628768	-2.877260111225922	35.00662527437037	0	0.9399999999999999	0	45.22701761073237	-11.08891781403634	-11.32502931897621	49.89169255307057	0.8707743044438172	0	0	0	45.22701761073237	-11.08891781403634	-11.32502931897621	49.89169255307057	0.8707743044438172	0	0	0	-6.554028164955495	2.467504784731164	-5.940643387835812	31.28710599369747	-10.32459530618341	16.56357685105788	39.91271097595347	117.1390364492072	0	0	44.64365477316252	-0.8692951316291893	7.728136614692846	73.22774003332461	119.8287761787179	0	0
17.69999999999971	-4.419240601608918	-2.881178739509934	35.22239305030919	0	0.9399999999999999	0	45.22689916691483	-11.08695482257016	-11.32349111701435	49.89350699364134	0.8708059724058589	0	0	0	45.22689916691483	-11.08695482257016	-11.32349111701435	49.89350699364134	0.8708059724058589	0	0	0	-6.564683658346221	2.487351803284441	-6.105443627785878	31.29127007122013	-10.32918519181332	16.51958170840404	39.90678853733219	117.0957509856492	0	0	43.99006236552419	-1.485565623029213	7.828460645995142	75.99371678840686	121.64695756885	0	0
